<svg width="798" height="1055" xmlns="http://www.w3.org/2000/svg" xmlns:xlink="http://www.w3.org/1999/xlink" xml:space="preserve" overflow="hidden"><defs><linearGradient x1="1061.83" y1="851.001" x2="2073.17" y2="1616" gradientUnits="userSpaceOnUse" spreadMethod="reflect" id="fill0"><stop offset="0" stop-color="#A5A5A5" stop-opacity="1"/><stop offset="0.26" stop-color="#A5A5A5" stop-opacity="1"/><stop offset="0.49" stop-color="#FFFFFF" stop-opacity="1"/><stop offset="1" stop-color="#A5A5A5" stop-opacity="1"/></linearGradient></defs><g transform="translate(-1168 -705)"><g><path d="M1957.18 926.916 1847.7 767.802 1847.7 720.85C1847.7 709.112 1833.37 703.896 1825.55 711.721L1645.7 879.964C1624.84 899.527 1613.11 926.916 1613.11 955.608L1613.11 963.433C1613.11 1074.29 1313.36 1119.94 1313.36 1472.07 1313.36 1519.03 1315.97 1559.46 1322.48 1593.37 1319.88 1590.76 1317.27 1588.15 1313.36 1585.54 1283.39 1556.85 1248.2 1492.94 1248.2 1354.7 1248.2 1306.44 1271.66 1256.88 1295.11 1209.93 1331.61 1134.28 1373.31 1048.21 1301.63 975.171 1285.99 959.521 1261.23 959.521 1246.89 975.171 1231.25 990.822 1231.25 1015.6 1246.89 1029.95 1276.87 1059.94 1263.84 1095.16 1226.04 1174.71 1198.67 1228.19 1170 1289.49 1170 1354.7 1170 1489.03 1201.28 1586.84 1261.23 1644.23 1292.51 1674.23 1326.39 1685.96 1349.85 1691.18 1374.61 1743.35 1404.59 1759 1417.62 1759L1574.02 1759C1596.17 1759 1613.11 1742.05 1613.11 1719.87 1613.11 1700.31 1598.78 1683.36 1579.23 1680.75L1534.92 1680.75C1584.44 1653.36 1626.15 1597.28 1626.15 1498.16 1626.15 1412.08 1609.2 1376.87 1551.86 1345.57 1542.74 1340.35 1538.83 1328.61 1544.04 1319.48 1549.25 1310.35 1560.98 1306.44 1570.11 1311.66 1649.61 1353.39 1665.25 1412.08 1665.25 1498.16 1665.25 1545.11 1656.12 1586.84 1639.18 1622.06L1639.18 1719.87C1639.18 1742.05 1656.12 1759 1678.28 1759 1700.43 1759 1717.38 1742.05 1717.38 1719.87L1717.38 1599.89C1726.5 1589.45 1735.62 1577.72 1743.44 1564.67L1743.44 1719.87C1743.44 1742.05 1760.39 1759 1782.54 1759 1804.7 1759 1821.64 1742.05 1821.64 1719.87L1821.64 1372.95C1830.76 1333.83 1834.67 1299.92 1834.67 1276.44 1834.67 1173.41 1808.61 1162.98 1808.61 1106.9 1808.61 1078.2 1832.07 1054.73 1860.74 1054.73 1918.08 1054.73 1965 1007.78 1965 950.391 1965 941.262 1962.39 933.436 1957.18 926.916Z" fill="url(#fill0)" fill-rule="evenodd"/></g></g></svg>